<?xml version="1.0" encoding="utf-8" standalone="no"?>
<!DOCTYPE svg PUBLIC "-//W3C//DTD SVG 1.1//EN"
  "http://www.w3.org/Graphics/SVG/1.1/DTD/svg11.dtd">
<svg xmlns:xlink="http://www.w3.org/1999/xlink" width="169.68069pt" height="224.39952pt" viewBox="0 0 169.68069 224.39952" xmlns="http://www.w3.org/2000/svg" version="1.1">
 <metadata>
  <rdf:RDF xmlns:dc="http://purl.org/dc/elements/1.1/" xmlns:cc="http://creativecommons.org/ns#" xmlns:rdf="http://www.w3.org/1999/02/22-rdf-syntax-ns#">
   <cc:Work>
    <dc:type rdf:resource="http://purl.org/dc/dcmitype/StillImage"/>
    <dc:date>2025-10-16T18:29:39.818093</dc:date>
    <dc:format>image/svg+xml</dc:format>
    <dc:creator>
     <cc:Agent>
      <dc:title>Matplotlib v3.10.1, https://matplotlib.org/</dc:title>
     </cc:Agent>
    </dc:creator>
   </cc:Work>
  </rdf:RDF>
 </metadata>
 <defs>
  <style type="text/css">*{stroke-linejoin: round; stroke-linecap: butt}</style>
 </defs>
 <g id="figure_1">
  <g id="patch_1">
   <path d="M 0 224.39952 
L 169.68069 224.39952 
L 169.68069 0 
L 0 0 
z
" style="fill: #ffffff"/>
  </g>
  <g id="axes_1">
   <g id="line2d_1">
    <path d="M 93.619767 113.813543 
L 96.369354 74.924407 
" clip-path="url(#p243d4705c4)" style="fill: none; stroke: #000000; stroke-linecap: square"/>
   </g>
   <g id="line2d_2">
    <path d="M 93.619767 113.813543 
L 77.018762 111.931472 
" clip-path="url(#p243d4705c4)" style="fill: none; stroke: #000000; stroke-linecap: square"/>
   </g>
   <g id="line2d_3">
    <path d="M 93.619767 113.813543 
L 90.85177 152.271056 
" clip-path="url(#p243d4705c4)" style="fill: none; stroke: #000000; stroke-linecap: square"/>
   </g>
   <g id="line2d_4">
    <path d="M 96.369354 74.924407 
L 124.108841 54.497022 
" clip-path="url(#p243d4705c4)" style="fill: none; stroke: #000000; stroke-linecap: square"/>
   </g>
   <g id="line2d_5">
    <path d="M 96.369354 74.924407 
L 74.728367 48.372492 
" clip-path="url(#p243d4705c4)" style="fill: none; stroke: #000000; stroke-linecap: square"/>
   </g>
   <g id="line2d_6">
    <path d="M 77.018762 111.931472 
L 42.980337 109.747039 
" clip-path="url(#p243d4705c4)" style="fill: none; stroke: #000000; stroke-linecap: square"/>
   </g>
   <g id="line2d_7">
    <path d="M 77.018762 111.931472 
L 119.484878 115.004315 
" clip-path="url(#p243d4705c4)" style="fill: none; stroke: #000000; stroke-linecap: square"/>
   </g>
   <g id="line2d_8">
    <path d="M 90.85177 152.271056 
L 115.472832 176.297928 
" clip-path="url(#p243d4705c4)" style="fill: none; stroke: #000000; stroke-linecap: square"/>
   </g>
   <g id="line2d_9">
    <path d="M 90.85177 152.271056 
L 65.686398 175.404586 
" clip-path="url(#p243d4705c4)" style="fill: none; stroke: #000000; stroke-linecap: square"/>
   </g>
   <g id="line2d_10">
    <path d="M 124.108841 54.497022 
L 131.611774 23.866522 
" clip-path="url(#p243d4705c4)" style="fill: none; stroke: #000000; stroke-linecap: square"/>
   </g>
   <g id="line2d_11">
    <path d="M 124.108841 54.497022 
L 155.422477 47.427309 
" clip-path="url(#p243d4705c4)" style="fill: none; stroke: #000000; stroke-linecap: square"/>
   </g>
   <g id="line2d_12">
    <path d="M 74.728367 48.372492 
L 46.661201 33.400832 
" clip-path="url(#p243d4705c4)" style="fill: none; stroke: #000000; stroke-linecap: square"/>
   </g>
   <g id="line2d_13">
    <path d="M 74.728367 48.372492 
L 75.284279 16.745433 
" clip-path="url(#p243d4705c4)" style="fill: none; stroke: #000000; stroke-linecap: square"/>
   </g>
   <g id="line2d_14">
    <path d="M 42.980337 109.747039 
L 16.518224 91.674919 
" clip-path="url(#p243d4705c4)" style="fill: none; stroke: #000000; stroke-linecap: square"/>
   </g>
   <g id="line2d_15">
    <path d="M 42.980337 109.747039 
L 14.258213 123.930294 
" clip-path="url(#p243d4705c4)" style="fill: none; stroke: #000000; stroke-linecap: square"/>
   </g>
   <g id="line2d_16">
    <path d="M 119.484878 115.004315 
L 150.537654 102.3415 
" clip-path="url(#p243d4705c4)" style="fill: none; stroke: #000000; stroke-linecap: square"/>
   </g>
   <g id="line2d_17">
    <path d="M 119.484878 115.004315 
L 148.418278 132.026923 
" clip-path="url(#p243d4705c4)" style="fill: none; stroke: #000000; stroke-linecap: square"/>
   </g>
   <g id="line2d_18">
    <path d="M 115.472832 176.297928 
L 145.476587 187.64169 
" clip-path="url(#p243d4705c4)" style="fill: none; stroke: #000000; stroke-linecap: square"/>
   </g>
   <g id="line2d_19">
    <path d="M 115.472832 176.297928 
L 118.614264 207.654087 
" clip-path="url(#p243d4705c4)" style="fill: none; stroke: #000000; stroke-linecap: square"/>
   </g>
   <g id="line2d_20">
    <path d="M 65.686398 175.404586 
L 61.779159 206.770173 
" clip-path="url(#p243d4705c4)" style="fill: none; stroke: #000000; stroke-linecap: square"/>
   </g>
   <g id="line2d_21">
    <path d="M 65.686398 175.404586 
L 35.790924 186.20612 
" clip-path="url(#p243d4705c4)" style="fill: none; stroke: #000000; stroke-linecap: square"/>
   </g>
   <g id="PathCollection_1">
    <defs>
     <path id="m50211a82fd" d="M 0 5.477226 
C 1.452577 5.477226 2.845856 4.900111 3.872983 3.872983 
C 4.900111 2.845856 5.477226 1.452577 5.477226 0 
C 5.477226 -1.452577 4.900111 -2.845856 3.872983 -3.872983 
C 2.845856 -4.900111 1.452577 -5.477226 0 -5.477226 
C -1.452577 -5.477226 -2.845856 -4.900111 -3.872983 -3.872983 
C -4.900111 -2.845856 -5.477226 -1.452577 -5.477226 0 
C -5.477226 1.452577 -4.900111 2.845856 -3.872983 3.872983 
C -2.845856 4.900111 -1.452577 5.477226 0 5.477226 
z
"/>
    </defs>
    <g clip-path="url(#p243d4705c4)">
     <use xlink:href="#m50211a82fd" x="93.619767" y="113.813543" style="fill: #d62728"/>
    </g>
   </g>
   <g id="PathCollection_2">
    <defs>
     <path id="m0a13b1c43d" d="M 0 5.477226 
C 1.452577 5.477226 2.845856 4.900111 3.872983 3.872983 
C 4.900111 2.845856 5.477226 1.452577 5.477226 0 
C 5.477226 -1.452577 4.900111 -2.845856 3.872983 -3.872983 
C 2.845856 -4.900111 1.452577 -5.477226 0 -5.477226 
C -1.452577 -5.477226 -2.845856 -4.900111 -3.872983 -3.872983 
C -4.900111 -2.845856 -5.477226 -1.452577 -5.477226 0 
C -5.477226 1.452577 -4.900111 2.845856 -3.872983 3.872983 
C -2.845856 4.900111 -1.452577 5.477226 0 5.477226 
z
"/>
    </defs>
    <g clip-path="url(#p243d4705c4)">
     <use xlink:href="#m0a13b1c43d" x="96.369354" y="74.924407" style="fill: #add8e6"/>
    </g>
   </g>
   <g id="PathCollection_3">
    <g clip-path="url(#p243d4705c4)">
     <use xlink:href="#m0a13b1c43d" x="77.018762" y="111.931472" style="fill: #add8e6"/>
    </g>
   </g>
   <g id="PathCollection_4">
    <g clip-path="url(#p243d4705c4)">
     <use xlink:href="#m0a13b1c43d" x="90.85177" y="152.271056" style="fill: #add8e6"/>
    </g>
   </g>
   <g id="PathCollection_5">
    <g clip-path="url(#p243d4705c4)">
     <use xlink:href="#m0a13b1c43d" x="124.108841" y="54.497022" style="fill: #add8e6"/>
    </g>
   </g>
   <g id="PathCollection_6">
    <g clip-path="url(#p243d4705c4)">
     <use xlink:href="#m0a13b1c43d" x="74.728367" y="48.372492" style="fill: #add8e6"/>
    </g>
   </g>
   <g id="PathCollection_7">
    <g clip-path="url(#p243d4705c4)">
     <use xlink:href="#m0a13b1c43d" x="42.980337" y="109.747039" style="fill: #add8e6"/>
    </g>
   </g>
   <g id="PathCollection_8">
    <g clip-path="url(#p243d4705c4)">
     <use xlink:href="#m0a13b1c43d" x="119.484878" y="115.004315" style="fill: #add8e6"/>
    </g>
   </g>
   <g id="PathCollection_9">
    <g clip-path="url(#p243d4705c4)">
     <use xlink:href="#m0a13b1c43d" x="115.472832" y="176.297928" style="fill: #add8e6"/>
    </g>
   </g>
   <g id="PathCollection_10">
    <g clip-path="url(#p243d4705c4)">
     <use xlink:href="#m0a13b1c43d" x="65.686398" y="175.404586" style="fill: #add8e6"/>
    </g>
   </g>
   <g id="PathCollection_11">
    <g clip-path="url(#p243d4705c4)">
     <use xlink:href="#m0a13b1c43d" x="131.611774" y="23.866522" style="fill: #add8e6"/>
    </g>
   </g>
   <g id="PathCollection_12">
    <g clip-path="url(#p243d4705c4)">
     <use xlink:href="#m0a13b1c43d" x="155.422477" y="47.427309" style="fill: #add8e6"/>
    </g>
   </g>
   <g id="PathCollection_13">
    <g clip-path="url(#p243d4705c4)">
     <use xlink:href="#m0a13b1c43d" x="46.661201" y="33.400832" style="fill: #add8e6"/>
    </g>
   </g>
   <g id="PathCollection_14">
    <g clip-path="url(#p243d4705c4)">
     <use xlink:href="#m0a13b1c43d" x="75.284279" y="16.745433" style="fill: #add8e6"/>
    </g>
   </g>
   <g id="PathCollection_15">
    <g clip-path="url(#p243d4705c4)">
     <use xlink:href="#m0a13b1c43d" x="16.518224" y="91.674919" style="fill: #add8e6"/>
    </g>
   </g>
   <g id="PathCollection_16">
    <g clip-path="url(#p243d4705c4)">
     <use xlink:href="#m0a13b1c43d" x="14.258213" y="123.930294" style="fill: #add8e6"/>
    </g>
   </g>
   <g id="PathCollection_17">
    <g clip-path="url(#p243d4705c4)">
     <use xlink:href="#m0a13b1c43d" x="150.537654" y="102.3415" style="fill: #add8e6"/>
    </g>
   </g>
   <g id="PathCollection_18">
    <g clip-path="url(#p243d4705c4)">
     <use xlink:href="#m0a13b1c43d" x="148.418278" y="132.026923" style="fill: #add8e6"/>
    </g>
   </g>
   <g id="PathCollection_19">
    <g clip-path="url(#p243d4705c4)">
     <use xlink:href="#m0a13b1c43d" x="145.476587" y="187.64169" style="fill: #add8e6"/>
    </g>
   </g>
   <g id="PathCollection_20">
    <g clip-path="url(#p243d4705c4)">
     <use xlink:href="#m0a13b1c43d" x="118.614264" y="207.654087" style="fill: #add8e6"/>
    </g>
   </g>
   <g id="PathCollection_21">
    <g clip-path="url(#p243d4705c4)">
     <use xlink:href="#m0a13b1c43d" x="61.779159" y="206.770173" style="fill: #add8e6"/>
    </g>
   </g>
   <g id="PathCollection_22">
    <g clip-path="url(#p243d4705c4)">
     <use xlink:href="#m0a13b1c43d" x="35.790924" y="186.20612" style="fill: #add8e6"/>
    </g>
   </g>
   <g id="matplotlib.axis_1"/>
   <g id="matplotlib.axis_2"/>
   <g id="text_1">
    <!-- 1 -->
    <g transform="translate(91.392892 115.745106) scale(0.07 -0.07)">
     <defs>
      <path id="DejaVuSans-31" d="M 794 531 
L 1825 531 
L 1825 4091 
L 703 3866 
L 703 4441 
L 1819 4666 
L 2450 4666 
L 2450 531 
L 3481 531 
L 3481 0 
L 794 0 
L 794 531 
z
" transform="scale(0.015625)"/>
     </defs>
     <use xlink:href="#DejaVuSans-31"/>
    </g>
   </g>
   <g id="text_2">
    <!-- 2 -->
    <g transform="translate(94.142479 76.85597) scale(0.07 -0.07)">
     <defs>
      <path id="DejaVuSans-32" d="M 1228 531 
L 3431 531 
L 3431 0 
L 469 0 
L 469 531 
Q 828 903 1448 1529 
Q 2069 2156 2228 2338 
Q 2531 2678 2651 2914 
Q 2772 3150 2772 3378 
Q 2772 3750 2511 3984 
Q 2250 4219 1831 4219 
Q 1534 4219 1204 4116 
Q 875 4013 500 3803 
L 500 4441 
Q 881 4594 1212 4672 
Q 1544 4750 1819 4750 
Q 2544 4750 2975 4387 
Q 3406 4025 3406 3419 
Q 3406 3131 3298 2873 
Q 3191 2616 2906 2266 
Q 2828 2175 2409 1742 
Q 1991 1309 1228 531 
z
" transform="scale(0.015625)"/>
     </defs>
     <use xlink:href="#DejaVuSans-32"/>
    </g>
   </g>
   <g id="text_3">
    <!-- 3 -->
    <g transform="translate(74.791887 113.863035) scale(0.07 -0.07)">
     <defs>
      <path id="DejaVuSans-33" d="M 2597 2516 
Q 3050 2419 3304 2112 
Q 3559 1806 3559 1356 
Q 3559 666 3084 287 
Q 2609 -91 1734 -91 
Q 1441 -91 1130 -33 
Q 819 25 488 141 
L 488 750 
Q 750 597 1062 519 
Q 1375 441 1716 441 
Q 2309 441 2620 675 
Q 2931 909 2931 1356 
Q 2931 1769 2642 2001 
Q 2353 2234 1838 2234 
L 1294 2234 
L 1294 2753 
L 1863 2753 
Q 2328 2753 2575 2939 
Q 2822 3125 2822 3475 
Q 2822 3834 2567 4026 
Q 2313 4219 1838 4219 
Q 1578 4219 1281 4162 
Q 984 4106 628 3988 
L 628 4550 
Q 988 4650 1302 4700 
Q 1616 4750 1894 4750 
Q 2613 4750 3031 4423 
Q 3450 4097 3450 3541 
Q 3450 3153 3228 2886 
Q 3006 2619 2597 2516 
z
" transform="scale(0.015625)"/>
     </defs>
     <use xlink:href="#DejaVuSans-33"/>
    </g>
   </g>
   <g id="text_4">
    <!-- 4 -->
    <g transform="translate(88.624895 154.202619) scale(0.07 -0.07)">
     <defs>
      <path id="DejaVuSans-34" d="M 2419 4116 
L 825 1625 
L 2419 1625 
L 2419 4116 
z
M 2253 4666 
L 3047 4666 
L 3047 1625 
L 3713 1625 
L 3713 1100 
L 3047 1100 
L 3047 0 
L 2419 0 
L 2419 1100 
L 313 1100 
L 313 1709 
L 2253 4666 
z
" transform="scale(0.015625)"/>
     </defs>
     <use xlink:href="#DejaVuSans-34"/>
    </g>
   </g>
   <g id="text_5">
    <!-- 5 -->
    <g transform="translate(121.881966 56.428585) scale(0.07 -0.07)">
     <defs>
      <path id="DejaVuSans-35" d="M 691 4666 
L 3169 4666 
L 3169 4134 
L 1269 4134 
L 1269 2991 
Q 1406 3038 1543 3061 
Q 1681 3084 1819 3084 
Q 2600 3084 3056 2656 
Q 3513 2228 3513 1497 
Q 3513 744 3044 326 
Q 2575 -91 1722 -91 
Q 1428 -91 1123 -41 
Q 819 9 494 109 
L 494 744 
Q 775 591 1075 516 
Q 1375 441 1709 441 
Q 2250 441 2565 725 
Q 2881 1009 2881 1497 
Q 2881 1984 2565 2268 
Q 2250 2553 1709 2553 
Q 1456 2553 1204 2497 
Q 953 2441 691 2322 
L 691 4666 
z
" transform="scale(0.015625)"/>
     </defs>
     <use xlink:href="#DejaVuSans-35"/>
    </g>
   </g>
   <g id="text_6">
    <!-- 6 -->
    <g transform="translate(72.501492 50.304055) scale(0.07 -0.07)">
     <defs>
      <path id="DejaVuSans-36" d="M 2113 2584 
Q 1688 2584 1439 2293 
Q 1191 2003 1191 1497 
Q 1191 994 1439 701 
Q 1688 409 2113 409 
Q 2538 409 2786 701 
Q 3034 994 3034 1497 
Q 3034 2003 2786 2293 
Q 2538 2584 2113 2584 
z
M 3366 4563 
L 3366 3988 
Q 3128 4100 2886 4159 
Q 2644 4219 2406 4219 
Q 1781 4219 1451 3797 
Q 1122 3375 1075 2522 
Q 1259 2794 1537 2939 
Q 1816 3084 2150 3084 
Q 2853 3084 3261 2657 
Q 3669 2231 3669 1497 
Q 3669 778 3244 343 
Q 2819 -91 2113 -91 
Q 1303 -91 875 529 
Q 447 1150 447 2328 
Q 447 3434 972 4092 
Q 1497 4750 2381 4750 
Q 2619 4750 2861 4703 
Q 3103 4656 3366 4563 
z
" transform="scale(0.015625)"/>
     </defs>
     <use xlink:href="#DejaVuSans-36"/>
    </g>
   </g>
   <g id="text_7">
    <!-- 7 -->
    <g transform="translate(40.753462 111.678601) scale(0.07 -0.07)">
     <defs>
      <path id="DejaVuSans-37" d="M 525 4666 
L 3525 4666 
L 3525 4397 
L 1831 0 
L 1172 0 
L 2766 4134 
L 525 4134 
L 525 4666 
z
" transform="scale(0.015625)"/>
     </defs>
     <use xlink:href="#DejaVuSans-37"/>
    </g>
   </g>
   <g id="text_8">
    <!-- 8 -->
    <g transform="translate(117.258003 116.935878) scale(0.07 -0.07)">
     <defs>
      <path id="DejaVuSans-38" d="M 2034 2216 
Q 1584 2216 1326 1975 
Q 1069 1734 1069 1313 
Q 1069 891 1326 650 
Q 1584 409 2034 409 
Q 2484 409 2743 651 
Q 3003 894 3003 1313 
Q 3003 1734 2745 1975 
Q 2488 2216 2034 2216 
z
M 1403 2484 
Q 997 2584 770 2862 
Q 544 3141 544 3541 
Q 544 4100 942 4425 
Q 1341 4750 2034 4750 
Q 2731 4750 3128 4425 
Q 3525 4100 3525 3541 
Q 3525 3141 3298 2862 
Q 3072 2584 2669 2484 
Q 3125 2378 3379 2068 
Q 3634 1759 3634 1313 
Q 3634 634 3220 271 
Q 2806 -91 2034 -91 
Q 1263 -91 848 271 
Q 434 634 434 1313 
Q 434 1759 690 2068 
Q 947 2378 1403 2484 
z
M 1172 3481 
Q 1172 3119 1398 2916 
Q 1625 2713 2034 2713 
Q 2441 2713 2670 2916 
Q 2900 3119 2900 3481 
Q 2900 3844 2670 4047 
Q 2441 4250 2034 4250 
Q 1625 4250 1398 4047 
Q 1172 3844 1172 3481 
z
" transform="scale(0.015625)"/>
     </defs>
     <use xlink:href="#DejaVuSans-38"/>
    </g>
   </g>
   <g id="text_9">
    <!-- 9 -->
    <g transform="translate(113.245957 178.229491) scale(0.07 -0.07)">
     <defs>
      <path id="DejaVuSans-39" d="M 703 97 
L 703 672 
Q 941 559 1184 500 
Q 1428 441 1663 441 
Q 2288 441 2617 861 
Q 2947 1281 2994 2138 
Q 2813 1869 2534 1725 
Q 2256 1581 1919 1581 
Q 1219 1581 811 2004 
Q 403 2428 403 3163 
Q 403 3881 828 4315 
Q 1253 4750 1959 4750 
Q 2769 4750 3195 4129 
Q 3622 3509 3622 2328 
Q 3622 1225 3098 567 
Q 2575 -91 1691 -91 
Q 1453 -91 1209 -44 
Q 966 3 703 97 
z
M 1959 2075 
Q 2384 2075 2632 2365 
Q 2881 2656 2881 3163 
Q 2881 3666 2632 3958 
Q 2384 4250 1959 4250 
Q 1534 4250 1286 3958 
Q 1038 3666 1038 3163 
Q 1038 2656 1286 2365 
Q 1534 2075 1959 2075 
z
" transform="scale(0.015625)"/>
     </defs>
     <use xlink:href="#DejaVuSans-39"/>
    </g>
   </g>
   <g id="text_10">
    <!-- 10 -->
    <g transform="translate(61.232648 177.336149) scale(0.07 -0.07)">
     <defs>
      <path id="DejaVuSans-30" d="M 2034 4250 
Q 1547 4250 1301 3770 
Q 1056 3291 1056 2328 
Q 1056 1369 1301 889 
Q 1547 409 2034 409 
Q 2525 409 2770 889 
Q 3016 1369 3016 2328 
Q 3016 3291 2770 3770 
Q 2525 4250 2034 4250 
z
M 2034 4750 
Q 2819 4750 3233 4129 
Q 3647 3509 3647 2328 
Q 3647 1150 3233 529 
Q 2819 -91 2034 -91 
Q 1250 -91 836 529 
Q 422 1150 422 2328 
Q 422 3509 836 4129 
Q 1250 4750 2034 4750 
z
" transform="scale(0.015625)"/>
     </defs>
     <use xlink:href="#DejaVuSans-31"/>
     <use xlink:href="#DejaVuSans-30" transform="translate(63.623047 0)"/>
    </g>
   </g>
   <g id="text_11">
    <!-- 11 -->
    <g transform="translate(127.158024 25.798084) scale(0.07 -0.07)">
     <use xlink:href="#DejaVuSans-31"/>
     <use xlink:href="#DejaVuSans-31" transform="translate(63.623047 0)"/>
    </g>
   </g>
   <g id="text_12">
    <!-- 12 -->
    <g transform="translate(150.968727 49.358871) scale(0.07 -0.07)">
     <use xlink:href="#DejaVuSans-31"/>
     <use xlink:href="#DejaVuSans-32" transform="translate(63.623047 0)"/>
    </g>
   </g>
   <g id="text_13">
    <!-- 13 -->
    <g transform="translate(42.207451 35.332395) scale(0.07 -0.07)">
     <use xlink:href="#DejaVuSans-31"/>
     <use xlink:href="#DejaVuSans-33" transform="translate(63.623047 0)"/>
    </g>
   </g>
   <g id="text_14">
    <!-- 14 -->
    <g transform="translate(70.830529 18.676995) scale(0.07 -0.07)">
     <use xlink:href="#DejaVuSans-31"/>
     <use xlink:href="#DejaVuSans-34" transform="translate(63.623047 0)"/>
    </g>
   </g>
   <g id="text_15">
    <!-- 15 -->
    <g transform="translate(12.064474 93.606482) scale(0.07 -0.07)">
     <use xlink:href="#DejaVuSans-31"/>
     <use xlink:href="#DejaVuSans-35" transform="translate(63.623047 0)"/>
    </g>
   </g>
   <g id="text_16">
    <!-- 16 -->
    <g transform="translate(9.804463 125.861857) scale(0.07 -0.07)">
     <use xlink:href="#DejaVuSans-31"/>
     <use xlink:href="#DejaVuSans-36" transform="translate(63.623047 0)"/>
    </g>
   </g>
   <g id="text_17">
    <!-- 17 -->
    <g transform="translate(146.083904 104.273063) scale(0.07 -0.07)">
     <use xlink:href="#DejaVuSans-31"/>
     <use xlink:href="#DejaVuSans-37" transform="translate(63.623047 0)"/>
    </g>
   </g>
   <g id="text_18">
    <!-- 18 -->
    <g transform="translate(143.964528 133.958486) scale(0.07 -0.07)">
     <use xlink:href="#DejaVuSans-31"/>
     <use xlink:href="#DejaVuSans-38" transform="translate(63.623047 0)"/>
    </g>
   </g>
   <g id="text_19">
    <!-- 19 -->
    <g transform="translate(141.022837 189.573252) scale(0.07 -0.07)">
     <use xlink:href="#DejaVuSans-31"/>
     <use xlink:href="#DejaVuSans-39" transform="translate(63.623047 0)"/>
    </g>
   </g>
   <g id="text_20">
    <!-- 20 -->
    <g transform="translate(114.160514 209.58565) scale(0.07 -0.07)">
     <use xlink:href="#DejaVuSans-32"/>
     <use xlink:href="#DejaVuSans-30" transform="translate(63.623047 0)"/>
    </g>
   </g>
   <g id="text_21">
    <!-- 21 -->
    <g transform="translate(57.325409 208.701735) scale(0.07 -0.07)">
     <use xlink:href="#DejaVuSans-32"/>
     <use xlink:href="#DejaVuSans-31" transform="translate(63.623047 0)"/>
    </g>
   </g>
   <g id="text_22">
    <!-- 22 -->
    <g transform="translate(31.337174 188.137683) scale(0.07 -0.07)">
     <use xlink:href="#DejaVuSans-32"/>
     <use xlink:href="#DejaVuSans-32" transform="translate(63.623047 0)"/>
    </g>
   </g>
  </g>
 </g>
 <defs>
  <clipPath id="p243d4705c4">
   <rect x="7.2" y="7.2" width="155.28069" height="209.99952"/>
  </clipPath>
 </defs>
</svg>
